<svg xmlns="http://www.w3.org/2000/svg" width="1200" height="630" viewBox="0 0 1200 630">
  <rect width="1200" height="630" fill="#4F46E5" />
  <defs>
    <linearGradient id="grad1" x1="0%" y1="0%" x2="100%" y2="0%">
      <stop offset="0%" style="stop-color:#4F46E5;stop-opacity:1" />
      <stop offset="100%" style="stop-color:#A855F7;stop-opacity:1" />
    </linearGradient>
  </defs>
  <rect width="1200" height="630" fill="url(#grad1)" />
  
  <!-- Abstract art elements -->
  <circle cx="300" cy="300" r="180" fill="#ffffff" fill-opacity="0.1" />
  <rect x="700" y="100" width="400" height="400" rx="30" fill="#ffffff" fill-opacity="0.1" />
  <polygon points="150,450 350,450 250,250" fill="#ffffff" fill-opacity="0.1" />
  
  <!-- Text -->
  <text x="600" y="270" font-family="Arial, sans-serif" font-size="76" text-anchor="middle" fill="white" font-weight="bold">P-CCS K-12</text>
  <text x="600" y="360" font-family="Arial, sans-serif" font-size="76" text-anchor="middle" fill="white" font-weight="bold">ART SHOW</text>
  <text x="600" y="430" font-family="Arial, sans-serif" font-size="36" text-anchor="middle" fill="white">May 17, 2025 • Salem High School</text>
  <text x="600" y="480" font-family="Arial, sans-serif" font-size="30" text-anchor="middle" fill="white">2,000+ Student Artworks • Live Demos • Awards</text>
  
  <!-- Paint brush icon -->
  <path d="M520,150 C510,130 490,120 470,120 C430,120 400,150 400,190 C400,230 430,260 470,260 C490,260 510,250 520,230" stroke="white" stroke-width="15" fill="none" stroke-linecap="round" />
  <path d="M520,190 L700,190" stroke="white" stroke-width="15" fill="none" stroke-linecap="round" />
  
  <!-- Palette icon -->
  <circle cx="650" cy="155" r="15" fill="white" />
  <circle cx="680" cy="170" r="15" fill="white" />
  <circle cx="680" cy="210" r="15" fill="white" />
  <circle cx="650" cy="225" r="15" fill="white" />
  <circle cx="620" cy="210" r="15" fill="white" />
  <circle cx="620" cy="170" r="15" fill="white" />
</svg> 